<svg id="visual" viewBox="0 0 900 600" width="900" height="600" xmlns="http://www.w3.org/2000/svg" xmlns:xlink="http://www.w3.org/1999/xlink" version="1.1"><rect x="0" y="0" width="900" height="600" fill="#002233"></rect><path d="M599 600L602 585.7C605 571.3 611 542.7 629.3 514.2C647.7 485.7 678.3 457.3 675.3 428.8C672.3 400.3 635.7 371.7 618.3 343C601 314.3 603 285.7 626.7 257C650.3 228.3 695.7 199.7 712.7 171.2C729.7 142.7 718.3 114.3 720.5 85.8C722.7 57.3 738.3 28.7 746.2 14.3L754 0L900 0L900 14.3C900 28.7 900 57.3 900 85.8C900 114.3 900 142.7 900 171.2C900 199.7 900 228.3 900 257C900 285.7 900 314.3 900 343C900 371.7 900 400.3 900 428.8C900 457.3 900 485.7 900 514.2C900 542.7 900 571.3 900 585.7L900 600Z" fill="#0066FF" stroke-linecap="round" stroke-linejoin="miter"></path></svg>