<svg id="visual" viewBox="0 0 900 600" width="900" height="600" xmlns="http://www.w3.org/2000/svg" xmlns:xlink="http://www.w3.org/1999/xlink" version="1.1"><rect x="0" y="0" width="900" height="600" fill="#CCCCCC"></rect><defs><linearGradient id="grad1_0" x1="33.3%" y1="0%" x2="100%" y2="100%"><stop offset="20%" stop-color="#cccccc" stop-opacity="1"></stop><stop offset="80%" stop-color="#cccccc" stop-opacity="1"></stop></linearGradient></defs><defs><linearGradient id="grad2_0" x1="0%" y1="0%" x2="66.7%" y2="100%"><stop offset="20%" stop-color="#cccccc" stop-opacity="1"></stop><stop offset="80%" stop-color="#cccccc" stop-opacity="1"></stop></linearGradient></defs><g transform="translate(900, 0)"><path d="M0 297.5C-42.1 296.6 -84.2 295.7 -113.8 274.8C-143.4 254 -160.5 213.1 -183.1 183.1C-205.8 153.1 -234.1 134 -254.1 105.2C-274.1 76.5 -285.8 38.3 -297.5 0L0 0Z" fill="#FBAE3C"></path></g><g transform="translate(0, 600)"><path d="M0 -297.5C37.6 -290.6 75.1 -283.7 112.1 -270.7C149.1 -257.7 185.6 -238.6 210.3 -210.3C235 -182 248 -144.5 260.5 -107.9C273.1 -71.3 285.3 -35.7 297.5 0L0 0Z" fill="#FBAE3C"></path></g></svg>