<svg id="visual" viewBox="0 0 960 540" width="960" height="540" xmlns="http://www.w3.org/2000/svg" xmlns:xlink="http://www.w3.org/1999/xlink" version="1.1"><rect x="0" y="0" width="960" height="540" fill="#001220"></rect><path d="M0 367L22.8 365.7C45.7 364.3 91.3 361.7 137 355.7C182.7 349.7 228.3 340.3 274 342.7C319.7 345 365.3 359 411.2 360C457 361 503 349 548.8 342C594.7 335 640.3 333 686 338C731.7 343 777.3 355 823 364C868.7 373 914.3 379 937.2 382L960 385L960 541L937.2 541C914.3 541 868.7 541 823 541C777.3 541 731.7 541 686 541C640.3 541 594.7 541 548.8 541C503 541 457 541 411.2 541C365.3 541 319.7 541 274 541C228.3 541 182.7 541 137 541C91.3 541 45.7 541 22.8 541L0 541Z" fill="#fa7268"></path><path d="M0 394L22.8 394.5C45.7 395 91.3 396 137 390.3C182.7 384.7 228.3 372.3 274 370.5C319.7 368.7 365.3 377.3 411.2 379.8C457 382.3 503 378.7 548.8 373.3C594.7 368 640.3 361 686 362.2C731.7 363.3 777.3 372.7 823 380.8C868.7 389 914.3 396 937.2 399.5L960 403L960 541L937.2 541C914.3 541 868.7 541 823 541C777.3 541 731.7 541 686 541C640.3 541 594.7 541 548.8 541C503 541 457 541 411.2 541C365.3 541 319.7 541 274 541C228.3 541 182.7 541 137 541C91.3 541 45.7 541 22.8 541L0 541Z" fill="#ef5f67"></path><path d="M0 398L22.8 407.8C45.7 417.7 91.3 437.3 137 447.3C182.7 457.3 228.3 457.7 274 454.5C319.7 451.3 365.3 444.7 411.2 437.8C457 431 503 424 548.8 421.5C594.7 419 640.3 421 686 424.5C731.7 428 777.3 433 823 431.5C868.7 430 914.3 422 937.2 418L960 414L960 541L937.2 541C914.3 541 868.7 541 823 541C777.3 541 731.7 541 686 541C640.3 541 594.7 541 548.8 541C503 541 457 541 411.2 541C365.3 541 319.7 541 274 541C228.3 541 182.7 541 137 541C91.3 541 45.7 541 22.8 541L0 541Z" fill="#e34c67"></path><path d="M0 479L22.8 472.2C45.7 465.3 91.3 451.7 137 444.3C182.7 437 228.3 436 274 439.3C319.7 442.7 365.3 450.3 411.2 451C457 451.7 503 445.3 548.8 446C594.7 446.7 640.3 454.3 686 457.2C731.7 460 777.3 458 823 457C868.7 456 914.3 456 937.2 456L960 456L960 541L937.2 541C914.3 541 868.7 541 823 541C777.3 541 731.7 541 686 541C640.3 541 594.7 541 548.8 541C503 541 457 541 411.2 541C365.3 541 319.7 541 274 541C228.3 541 182.7 541 137 541C91.3 541 45.7 541 22.8 541L0 541Z" fill="#d53867"></path><path d="M0 487L22.8 489.5C45.7 492 91.3 497 137 496C182.7 495 228.3 488 274 486.7C319.7 485.3 365.3 489.7 411.2 495.5C457 501.3 503 508.7 548.8 507.2C594.7 505.7 640.3 495.3 686 491.5C731.7 487.7 777.3 490.3 823 491.5C868.7 492.7 914.3 492.3 937.2 492.2L960 492L960 541L937.2 541C914.3 541 868.7 541 823 541C777.3 541 731.7 541 686 541C640.3 541 594.7 541 548.8 541C503 541 457 541 411.2 541C365.3 541 319.7 541 274 541C228.3 541 182.7 541 137 541C91.3 541 45.7 541 22.8 541L0 541Z" fill="#c62368"></path></svg>